<svg width="318" height="238" viewBox="0 0 318 238" fill="none" xmlns="http://www.w3.org/2000/svg">
<path d="M1.0876 43.854C-0.0653427 35.6504 5.65038 28.0654 13.854 26.9124L194.663 1.5014C202.866 0.348452 210.451 6.06417 211.604 14.2678L237.015 195.077C238.168 203.28 232.453 210.865 224.249 212.018L43.4402 237.429C35.2366 238.582 27.6516 232.866 26.4986 224.663L1.0876 43.854Z" fill="#005B98"/>
<path d="M53 29C53 20.7157 59.7157 14 68 14H250C258.284 14 265 20.7157 265 29V211C265 219.284 258.284 226 250 226H68C59.7157 226 53 219.284 53 211V29Z" fill="#002342"/>
<path d="M106.912 13.854C108.065 5.6504 115.65 -0.0653431 123.854 1.0876L304.663 26.4986C312.866 27.6516 318.582 35.2366 317.429 43.4402L292.018 224.249C290.865 232.453 283.28 238.168 275.077 237.015L94.2678 211.604C86.0642 210.451 80.3484 202.866 81.5014 194.663L106.912 13.854Z" fill="#ADE9FF"/>
</svg>
