<svg width="315" height="315" viewBox="0 0 315 315" fill="none" xmlns="http://www.w3.org/2000/svg">
<path d="M7.0876 81.854C5.93465 73.6504 11.6504 66.0654 19.854 64.9124L200.663 39.5014C208.866 38.3484 216.451 44.0642 217.604 52.2678L243.015 233.077C244.168 241.28 238.453 248.865 230.249 250.018L49.4402 275.429C41.2366 276.582 33.6516 270.866 32.4986 262.663L7.0876 81.854Z" fill="#005B98"/>
<path d="M97.3956 51.854C98.5486 43.6504 106.134 37.9346 114.337 39.0876L295.146 64.4986C303.35 65.6516 309.065 73.2366 307.912 81.4402L282.501 262.249C281.348 270.453 273.763 276.168 265.56 275.015L84.751 249.604C76.5474 248.451 70.8317 240.866 71.9846 232.663L97.3956 51.854Z" fill="#ADE9FF"/>
</svg>
