<svg width="335" height="238" viewBox="0 0 335 238" fill="none" xmlns="http://www.w3.org/2000/svg">
<path d="M1.0876 43.854C-0.0653427 35.6504 5.65038 28.0654 13.854 26.9124L194.663 1.5014C202.866 0.348452 210.451 6.06417 211.604 14.2678L237.015 195.077C238.168 203.28 232.453 210.865 224.249 212.018L43.4402 237.429C35.2366 238.582 27.6516 232.866 26.4986 224.663L1.0876 43.854Z" fill="#005B98"/>
<path d="M62 29C62 20.7157 68.7157 14 77 14H259C267.284 14 274 20.7157 274 29V211C274 219.284 267.284 226 259 226H77C68.7157 226 62 219.284 62 211V29Z" fill="#002342"/>
<path d="M123.912 13.854C125.065 5.6504 132.65 -0.0653431 140.854 1.0876L321.663 26.4986C329.866 27.6516 335.582 35.2366 334.429 43.4402L309.018 224.249C307.865 232.453 300.28 238.168 292.077 237.015L111.268 211.604C103.064 210.451 97.3484 202.866 98.5014 194.663L123.912 13.854Z" fill="#ADE9FF"/>
</svg>
